<?xml version="1.0" encoding="UTF-8" standalone="no"?>
<svg
   height="16"
   width="20"
   viewBox="0 0 640 512"
   version="1.1"
   id="svg1"
   sodipodi:docname="volume-off.svg"
   xmlns:inkscape="http://www.inkscape.org/namespaces/inkscape"
   xmlns:sodipodi="http://sodipodi.sourceforge.net/DTD/sodipodi-0.dtd"
   xmlns="http://www.w3.org/2000/svg"
   xmlns:svg="http://www.w3.org/2000/svg">
  <defs
     id="defs1" />
  <sodipodi:namedview
     id="namedview1"
     pagecolor="#ffffff"
     bordercolor="#000000"
     borderopacity="0.25"
     inkscape:showpageshadow="2"
     inkscape:pageopacity="0.0"
     inkscape:pagecheckerboard="0"
     inkscape:deskcolor="#d1d1d1" />
  <!--!Font Awesome Free 6.5.1 by @fontawesome - https://fontawesome.com License - https://fontawesome.com/license/free Copyright 2024 Fonticons, Inc.-->
  <path
     d="M 301.1,34.8 C 312.6,40 320,51.4 320,64 v 384 c 0,12.6 -7.4,24 -18.9,29.2 -11.5,5.2 -25,3.1 -34.4,-5.3 L 131.8,352 H 63.999997 C 28.7,352 9.1647529e-8,323.3 9.1647529e-8,288 V 224 C 9.1647529e-8,188.7 28.7,160 63.999997,160 H 131.8 L 266.7,40.1 c 9.4,-8.4 22.9,-10.4 34.4,-5.3 z M 425,167 l 55,55 55,-55 c 9.4,-9.4 24.6,-9.4 33.9,0 9.3,9.4 9.4,24.6 0,33.9 l -55,55 55,55 c 9.4,9.4 9.4,24.6 0,33.9 -9.4,9.3 -24.6,9.4 -33.9,0 l -55,-55 -55,55 c -9.4,9.4 -24.6,9.4 -33.9,0 -9.3,-9.4 -9.4,-24.6 0,-33.9 l 55,-55 -55,-55 c -9.4,-9.4 -9.4,-24.6 0,-33.9 9.4,-9.3 24.6,-9.4 33.9,0 z"
     id="path1"
     style="display:inline" />
</svg>
