<?xml version="1.0" encoding="UTF-8" standalone="no"?>
<svg
   version="1.1"
   width="163.21323"
   height="252.89999"
   viewBox="0 0 163.21323 252.89999"
   xml:space="preserve"
   id="svg4"
   sodipodi:docname="microphone-342.svg"
   xmlns:inkscape="http://www.inkscape.org/namespaces/inkscape"
   xmlns:sodipodi="http://sodipodi.sourceforge.net/DTD/sodipodi-0.dtd"
   xmlns="http://www.w3.org/2000/svg"
   xmlns:svg="http://www.w3.org/2000/svg"><sodipodi:namedview
   id="namedview4"
   pagecolor="#ffffff"
   bordercolor="#000000"
   borderopacity="0.25"
   inkscape:showpageshadow="2"
   inkscape:pageopacity="0.0"
   inkscape:pagecheckerboard="0"
   inkscape:deskcolor="#d1d1d1" />&#10;&#10;<defs
   id="defs1" />&#10;<g
   style="opacity:1;fill:none;fill-rule:nonzero;stroke:none;stroke-width:0;stroke-linecap:butt;stroke-linejoin:miter;stroke-miterlimit:10;stroke-dasharray:none"
   transform="matrix(2.81,0,0,2.81,-44.841983,1.1704102e-7)"
   id="g4">&#10;	<path
   d="m 45,70.968 c -16.013,0 -29.042,-13.028 -29.042,-29.042 0,-1.712 1.388,-3.099 3.099,-3.099 1.712,0 3.099,1.388 3.099,3.099 C 22.157,54.522 32.404,64.77 45,64.77 c 12.595,0 22.843,-10.248 22.843,-22.843 0,-1.712 1.387,-3.099 3.099,-3.099 1.712,0 3.099,1.388 3.099,3.099 C 74.042,57.94 61.013,70.968 45,70.968 Z"
   style="opacity:1;fill:#ffffff;fill-rule:nonzero;stroke:none;stroke-width:1;stroke-linecap:butt;stroke-linejoin:miter;stroke-miterlimit:10;stroke-dasharray:none"
   stroke-linecap="round"
   id="path1" />&#10;	<path
   d="m 45,60.738 v 0 c -10.285,0 -18.7,-8.415 -18.7,-18.7 V 18.7 C 26.3,8.415 34.715,0 45,0 v 0 c 10.285,0 18.7,8.415 18.7,18.7 v 23.337 c 0,10.285 -8.415,18.701 -18.7,18.701 z"
   style="opacity:1;fill:#ffffff;fill-rule:nonzero;stroke:none;stroke-width:1;stroke-linecap:butt;stroke-linejoin:miter;stroke-miterlimit:10;stroke-dasharray:none"
   stroke-linecap="round"
   id="path2" />&#10;	<path
   d="m 45,89.213 c -1.712,0 -3.099,-1.387 -3.099,-3.099 V 68.655 c 0,-1.712 1.388,-3.099 3.099,-3.099 1.712,0 3.099,1.387 3.099,3.099 v 17.459 c 0,1.712 -1.387,3.099 -3.099,3.099 z"
   style="opacity:1;fill:#ffffff;fill-rule:nonzero;stroke:none;stroke-width:1;stroke-linecap:butt;stroke-linejoin:miter;stroke-miterlimit:10;stroke-dasharray:none"
   stroke-linecap="round"
   id="path3" />&#10;	<path
   d="M 55.451,90 H 34.549 c -1.712,0 -3.099,-1.387 -3.099,-3.099 0,-1.712 1.388,-3.099 3.099,-3.099 H 55.45 c 1.712,0 3.099,1.387 3.099,3.099 0,1.712 -1.386,3.099 -3.098,3.099 z"
   style="opacity:1;fill:#ffffff;fill-rule:nonzero;stroke:none;stroke-width:1;stroke-linecap:butt;stroke-linejoin:miter;stroke-miterlimit:10;stroke-dasharray:none"
   stroke-linecap="round"
   id="path4" />&#10;</g>&#10;</svg>
