<?xml version="1.0" encoding="UTF-8" standalone="no"?>
<svg
   version="1.1"
   width="163.2131"
   height="252.90088"
   viewBox="0 0 163.2131 252.90088"
   xml:space="preserve"
   id="svg4"
   xmlns="http://www.w3.org/2000/svg"
   xmlns:svg="http://www.w3.org/2000/svg">&#10;&#10;<defs
   id="defs1" />&#10;<path
   d="m 123.21289,166.60156 9.31445,14.91406 c 0.31727,-0.25412 0.6456,-0.49517 0.95899,-0.7539 1.00801,-0.83222 1.99624,-1.68767 2.96289,-2.56641 0.96665,-0.87874 1.91237,-1.77958 2.83594,-2.70313 0.92356,-0.92354 1.82631,-1.86931 2.70507,-2.83593 0.87876,-0.96663 1.73418,-1.95491 2.56641,-2.96289 0.83223,-1.00799 1.63985,-2.03637 2.42383,-3.08399 0.78398,-1.04762 1.54334,-2.11368 2.27734,-3.19922 0.73401,-1.08553 1.44269,-2.19077 2.125,-3.3125 0.68231,-1.12172 1.33791,-2.25982 1.9668,-3.41601 0.62888,-1.15619 1.23094,-2.3306 1.80469,-3.51953 0.57374,-1.18894 1.11984,-2.39332 1.63671,-3.61328 0.51688,-1.21997 1.00461,-2.45387 1.4629,-3.70313 0.45828,-1.24926 0.88718,-2.51417 1.28515,-3.79102 0.39797,-1.27684 0.76563,-2.56644 1.10156,-3.86914 0.33594,-1.30269 0.63994,-2.61848 0.91211,-3.94531 0.27218,-1.32683 0.51206,-2.66443 0.71875,-4.01367 0.2067,-1.34924 0.38004,-2.71015 0.51953,-4.08008 0.1395,-1.36993 0.24585,-2.74977 0.31641,-4.13867 0.0706,-1.3889 0.10556,-2.78527 0.10547,-4.19141 0,-0.60098 -0.0598,-1.18908 -0.17578,-1.75586 -0.11597,-0.56678 -0.28754,-1.11388 -0.50781,-1.63476 -0.22028,-0.52088 -0.48981,-1.01522 -0.80274,-1.47852 -0.31293,-0.46329 -0.66857,-0.89505 -1.0625,-1.28906 -0.39393,-0.39401 -0.8258,-0.74945 -1.28906,-1.0625 -0.46327,-0.31305 -0.95952,-0.5843 -1.48047,-0.80469 -0.52095,-0.22038 -1.06779,-0.38982 -1.63477,-0.50586 -0.56697,-0.11603 -1.15256,-0.17773 -1.7539,-0.17773 -0.60134,0 -1.18889,0.0618 -1.75586,0.17773 -0.56697,0.11597 -1.11382,0.28559 -1.63477,0.50586 -0.52094,0.22028 -1.0172,0.48981 -1.48047,0.80274 -0.46326,0.31293 -0.89318,0.67052 -1.2871,1.06445 -0.39393,0.39393 -0.75153,0.82384 -1.06446,1.28711 -0.31293,0.46327 -0.58246,0.95952 -0.80273,1.48047 -0.22028,0.52095 -0.38989,1.06779 -0.50586,1.63476 -0.11597,0.56698 -0.17774,1.15452 -0.17774,1.75586 0,1.106 -0.0284,2.20444 -0.084,3.29688 -0.0556,1.09244 -0.13827,2.17833 -0.24805,3.25586 -0.10978,1.07752 -0.24557,2.14773 -0.4082,3.20898 -0.16263,1.06126 -0.35227,2.11262 -0.56641,3.15625 -0.21413,1.04364 -0.45447,2.07886 -0.71875,3.10352 -0.26428,1.02465 -0.55216,2.03865 -0.86523,3.04297 -0.31307,1.00432 -0.65121,1.99979 -1.01172,2.98242 -0.36051,0.98263 -0.7438,1.95252 -1.15039,2.91211 -0.81318,1.91917 -1.71766,3.79246 -2.70703,5.61133 -0.98937,1.81886 -2.06403,3.58329 -3.21875,5.29101 -1.15472,1.70772 -2.38804,3.35763 -3.69727,4.94336 -1.30923,1.58573 -2.69358,3.10765 -4.14648,4.56055 -1.19837,1.19837 -2.47234,2.31865 -3.76172,3.41992 z"
   style="opacity:1;fill:#ffffff;stroke-miterlimit:10"
   id="path7" /><path
   d="m 81.607421,-5e-7 c -1.8063,0 -3.5908,0.09319 -5.35156,0.273438 -1.76076,0.180245 -3.49689,0.447318 -5.20313,0.798828 -1.70623,0.35151 -3.38265,0.786986 -5.02539,1.300781 -1.64273,0.513796 -3.25201,1.106338 -4.82226,1.773438 -1.57025,0.6671 -3.10301,1.409279 -4.5918,2.220703 -1.48879,0.811424 -2.93369,1.691903 -4.33203,2.638672 -1.39835,0.946769 -2.74991,1.9600705 -4.04883,3.0332035 -1.29892,1.073132 -2.54581,2.205967 -3.73633,3.396484 -1.19051,1.190516 -2.32335,2.437407 -3.39648,3.736328 -1.07313,1.29892 -2.08644,2.650485 -3.0332,4.048828 -0.77946,1.151223 -1.48362,2.355297 -2.17188,3.568359 L 117.05859,156.74804 c 0.55098,-0.50642 1.13108,-0.98064 1.66016,-1.50976 1.19052,-1.19061 2.3253,-2.43928 3.39844,-3.73828 1.07313,-1.29901 2.08448,-2.64845 3.03125,-4.04688 0.94676,-1.39842 1.8292,-2.84512 2.64062,-4.33398 0.81143,-1.48886 1.55165,-3.02148 2.21875,-4.5918 0.6671,-1.57032 1.2616,-3.17752 1.77539,-4.82031 0.5138,-1.64279 0.94732,-3.32107 1.29883,-5.02735 0.35151,-1.70627 0.62054,-3.44234 0.80078,-5.20312 0.18025,-1.76078 0.27149,-3.54526 0.27149,-5.35156 V 52.546875 c 0,-1.806302 -0.0912,-3.590803 -0.27149,-5.351563 -0.18024,-1.760758 -0.44927,-3.496888 -0.80078,-5.203125 -0.35151,-1.706236 -0.78503,-3.382656 -1.29883,-5.025391 -0.51379,-1.642733 -1.10829,-3.252015 -1.77539,-4.822265 -0.6671,-1.570251 -1.40732,-3.101056 -2.21875,-4.589844 -0.81142,-1.488787 -1.69386,-2.93564 -2.64062,-4.333984 -0.94677,-1.398344 -1.95812,-2.749908 -3.03125,-4.048828 -1.07314,-1.298921 -2.20792,-2.545812 -3.39844,-3.736328 -1.19052,-1.190517 -2.43741,-2.323352 -3.73633,-3.396484 -1.29892,-1.073133 -2.64853,-2.0864345 -4.04687,-3.0332035 -1.39835,-0.946769 -2.8452,-1.827248 -4.33399,-2.638672 -1.48879,-0.811424 -3.01959,-1.553603 -4.58984,-2.220703 -1.57025,-0.6671 -3.179529,-1.259642 -4.822269,-1.773438 -1.64273,-0.513795 -3.31915,-0.949271 -5.02539,-1.300781 -1.70624,-0.35151 -3.44236,-0.618583 -5.20312,-0.798828 C 85.200181,0.0931925 83.413721,-5e-7 81.607421,-5e-7 Z"
   style="opacity:1;fill:#ffffff;stroke-miterlimit:10"
   id="path6" /><path
   d="m 29.060551,68.783203 v 49.343747 c 0,1.8063 0.0932,3.59276 0.27343,5.35352 0.18025,1.76075 0.44732,3.49689 0.79883,5.20312 0.35151,1.70623 0.78699,3.38266 1.30078,5.02539 0.5138,1.64273 1.10634,3.25202 1.77344,4.82227 0.6671,1.57024 1.40928,3.10106 2.2207,4.58984 0.81143,1.48879 1.69191,2.93564 2.63868,4.33399 0.94676,1.39834 1.96007,2.74795 3.0332,4.04687 1.07313,1.29892 2.20597,2.54581 3.39648,3.73633 1.19052,1.19051 2.43741,2.32531 3.73633,3.39844 1.29892,1.07313 2.65049,2.08448 4.04883,3.03125 1.39834,0.94676 2.84325,1.8292 4.33203,2.64062 1.48878,0.81142 3.02155,1.55165 4.5918,2.21875 1.57024,0.6671 3.17953,1.25964 4.82226,1.77344 1.64273,0.51379 3.31916,0.94927 5.02539,1.30078 1.70624,0.35151 3.44237,0.62054 5.20313,0.80078 1.76075,0.18025 3.54526,0.27149 5.35156,0.27149 1.8063,0 3.59276,-0.0912 5.35352,-0.27149 1.71779,-0.17587 3.41016,-0.44225 5.07617,-0.78125 z M 8.7089812,109.10547 c -0.60098,0 -1.18908,0.0598 -1.75586,0.17578 -0.56677,0.11596 -1.11388,0.28753 -1.63476,0.50781 -0.52088,0.22028 -1.01523,0.48981 -1.47852,0.80273 -0.46329,0.31293 -0.89505,0.66858 -1.2890599,1.0625 -0.39401,0.39393 -0.74946,0.8258 -1.0625001,1.28907 -0.31304,0.46326 -0.58429995,0.95757 -0.80468995,1.47851 -0.22038,0.52095 -0.38982,1.0678 -0.50586,1.63477 -0.11604,0.56697 -0.17773,1.15452 -0.17773,1.75586 0,1.40622 0.0348,2.80438 0.10547,4.19336 0.0706,1.38897 0.17684,2.76867 0.3164,4.13867 0.13957,1.37 0.31277,2.73077 0.51954,4.08008 0.20676005,1.34931 0.44650005,2.68678 0.71874995,4.01367 0.27224,1.32689 0.5780601,2.64256 0.91406,3.94531 0.33599,1.30276 0.70353,2.5942 1.10156,3.87109 0.39803,1.2769 0.82682,2.53976 1.28516,3.78907 0.45833,1.24931 0.94596,2.48507 1.46289,3.70508 0.51692,1.22 1.06293,2.4243 1.63672,3.61328 0.57378,1.18898 1.17576,2.36135 1.80468,3.51757 0.6289298,1.15623 1.2844598,2.29622 1.9667998,3.41797 0.68234,1.12176 1.39096,2.22499 2.125,3.31055 0.73404,1.08556 1.49334,2.15353 2.27734,3.20117 0.78401,1.04765 1.59353,2.07598 2.42579,3.08399 0.83225,1.008 1.68762,1.99624 2.5664,2.96289 0.87878,0.96664 1.77954,1.91237 2.70313,2.83593 0.92358,0.92357 1.86927,1.82437 2.83593,2.70313 0.96667,0.87876 1.95487,1.73418 2.96289,2.56641 1.00803,0.83223 2.03633,1.6418 3.08399,2.42578 1.04766,0.78398 2.1156,1.54333 3.20117,2.27734 1.08557,0.73401 2.18879,1.44269 3.31055,2.125 1.12176,0.68231 2.26174,1.3379 3.41797,1.9668 1.15622,0.62889 2.32861,1.23093 3.51757,1.80469 1.18897,0.57375 2.3933,1.11982 3.61329,1.63671 1.21999,0.5169 2.45579,1.00458 3.70507,1.46289 1.24929,0.45832 2.5122,0.88716 3.78907,1.28516 1.27686,0.39801 2.56838,0.76559 3.87109,1.10156 1.30271,0.33598 2.61652,0.63989 3.94336,0.91211 1.32684,0.27223 2.66637,0.512 4.01562,0.71875 1.22522,0.18775 2.46079,0.34026 3.70313,0.47266 v 36.5332 h -20.66016 c -0.60098,0 -1.18713,0.0618 -1.7539,0.17774 -0.56678,0.11596 -1.11389,0.28558 -1.63477,0.50586 -0.52087,0.22027 -1.01523,0.4898 -1.47851,0.80273 -0.46329,0.31293 -0.89506,0.67053 -1.28907,1.06445 -0.39401,0.39393 -0.75141,0.82385 -1.06445,1.28711 -0.31304,0.46326 -0.58235,0.95953 -0.80273,1.48047 -0.22039,0.52094 -0.39178,1.0678 -0.50782,1.63477 -0.11603,0.56696 -0.17578,1.15452 -0.17578,1.75586 0,0.60133 0.0598,1.18694 0.17578,1.7539 0.11597,0.56697 0.28754,1.11383 0.50782,1.63477 0.22027,0.52094 0.4898,1.01721 0.80273,1.48047 0.31293,0.46326 0.66858,0.89514 1.0625,1.28906 0.39392,0.39392 0.8258,0.74957 1.28906,1.0625 0.46326,0.31293 0.95758,0.58246 1.47852,0.80273 0.52094,0.22028 1.0678,0.39185 1.63476,0.50782 0.56697,0.11596 1.15453,0.17578 1.75586,0.17578 h 58.734379 c 0.60133,0 1.18897,-0.0598 1.75586,-0.17578 0.56689,-0.11597 1.11395,-0.28754 1.63476,-0.50782 0.52081,-0.22027 1.01542,-0.4898 1.47852,-0.80273 0.46309,-0.31293 0.89531,-0.66858 1.28906,-1.0625 0.39375,-0.39392 0.74974,-0.8258 1.0625,-1.28906 0.31276,-0.46326 0.58064,-0.95953 0.80078,-1.48047 0.22015,-0.52094 0.39193,-1.0678 0.50782,-1.63477 0.11588,-0.56696 0.17773,-1.15257 0.17773,-1.7539 0,-0.60134 -0.0618,-1.1889 -0.17773,-1.75586 -0.11597,-0.56697 -0.28754,-1.11383 -0.50782,-1.63477 -0.22027,-0.52094 -0.4898,-1.01721 -0.80273,-1.48047 -0.31293,-0.46326 -0.66858,-0.89318 -1.0625,-1.28711 -0.39392,-0.39392 -0.8258,-0.75152 -1.28906,-1.06445 -0.46327,-0.31293 -0.95758,-0.58246 -1.47852,-0.80273 -0.52094,-0.22028 -1.0678,-0.3899 -1.63477,-0.50586 -0.56696,-0.11597 -1.15452,-0.17774 -1.75585,-0.17774 H 90.316411 v -36.53515 c 1.24166,-0.13237 2.47856,-0.28306 3.70312,-0.47071 1.34925,-0.20675 2.68683,-0.44652 4.01367,-0.71875 1.32684,-0.27222 2.642599,-0.57613 3.945309,-0.91211 1.30272,-0.33597 2.59229,-0.70356 3.86915,-1.10156 0.69664,-0.21715 1.3798,-0.46596 2.06835,-0.70117 l -9.541009,-15.27539 c -0.24929,0.0676 -0.49367,0.14633 -0.74414,0.21094 -1.02465,0.26428 -2.05989,0.50266 -3.10352,0.71679 -1.04363,0.21414 -2.09695,0.40378 -3.1582,0.56641 -1.06125,0.16263 -2.12951,0.29843 -3.20703,0.4082 -1.07752,0.10978 -2.16343,0.19248 -3.25586,0.24805 -1.09244,0.0556 -2.19284,0.084 -3.29883,0.084 -1.10608,0 -2.20436,-0.0284 -3.29687,-0.084 -1.09252,-0.0556 -2.17828,-0.13827 -3.25586,-0.24805 -1.07759,-0.10977 -2.14768,-0.24557 -3.20899,-0.4082 -1.06131,-0.16263 -2.11452,-0.35227 -3.1582,-0.56641 -1.04368,-0.21413 -2.07883,-0.45251 -3.10352,-0.71679 -1.02469,-0.26429 -2.03862,-0.55412 -3.04297,-0.86719 -1.00435,-0.31307 -1.99781,-0.64926 -2.98046,-1.00977 -0.98266,-0.36051 -1.95446,-0.74575 -2.91407,-1.15234 -1.91921,-0.81318 -3.79049,-1.7157 -5.60937,-2.70508 -1.81889,-0.98938 -3.58525,-2.06596 -5.29297,-3.2207 -1.70772,-1.15474 -3.35763,-2.38801 -4.94336,-3.69727 -1.58573,-1.30926 -3.10765,-2.69354 -4.56055,-4.14648 -1.45289,-1.45294 -2.83725,-2.97477 -4.14648,-4.56055 -1.30923,-1.58578 -2.54254,-3.23558 -3.69727,-4.94336 -1.15472,-1.70778 -2.23131,-3.47403 -3.2207,-5.29297 -0.98939,-1.81894 -1.89186,-3.69011 -2.70508,-5.60937 -0.40661,-0.95963 -0.79181,-1.93138 -1.15234,-2.91406 -0.36054,-0.98268 -0.69666,-1.9761 -1.00977,-2.98047 -0.3131,-1.00438 -0.60286,-2.02021 -0.86718,-3.04493 -0.26433,-1.02471 -0.50262,-2.05981 -0.7168,-3.10351 -0.21419,-1.0437 -0.40372,-2.09493 -0.56641,-3.15625 -0.16269,-1.06132 -0.30031,-2.13139 -0.41015,-3.20899 -0.10985,-1.07759 -0.19241,-2.16334 -0.24805,-3.25585 -0.0556,-1.09252 -0.0839,-2.19275 -0.084,-3.29883 0,-0.60099 -0.0598,-1.18713 -0.17578,-1.75391 -0.11596,-0.56678 -0.28753,-1.11389 -0.50781,-1.63476 -0.22028,-0.52088 -0.4898,-1.01523 -0.80273,-1.47852 -0.31293,-0.46329 -0.66858,-0.89505 -1.0625,-1.28906 -0.39393,-0.39402 -0.8258,-0.75141 -1.28907,-1.06446 -0.46326,-0.31304 -0.95952,-0.58234 -1.48046,-0.80273 -0.52095,-0.22039 -1.0678,-0.39177 -1.63477,-0.50781 -0.5669698,-0.11604 -1.1525698,-0.17578 -1.7539098,-0.17578 z"
   style="opacity:1;fill:#ffffff;stroke-miterlimit:10"
   id="path5" /><path
   style="display:inline;fill:none;fill-opacity:1;stroke:#ffffff;stroke-width:14.032;stroke-linecap:round;stroke-linejoin:bevel;stroke-dasharray:none;stroke-dashoffset:0;stroke-opacity:1;paint-order:stroke fill markers"
   d="M 7.0164412,7.0172265 156.19711,245.88487"
   id="path11" />&#10;</svg>
